<mxfile host="app.diagrams.net" agent="Mozilla/5.0 (Macintosh; Intel Mac OS X 10_15_7) AppleWebKit/605.1.15 (KHTML, like Gecko) Version/18.0 Safari/605.1.15" version="24.9.2">
  <diagram name="Страница — 1" id="81Tuuqp5_1Kg4wqEXLPr">
    <mxGraphModel dx="954" dy="647" grid="1" gridSize="10" guides="1" tooltips="1" connect="1" arrows="1" fold="1" page="1" pageScale="1" pageWidth="827" pageHeight="1169" math="0" shadow="0">
      <root>
        <mxCell id="0" />
        <mxCell id="1" parent="0" />
        <mxCell id="wwmCVKzJI6QBJEnrf--R-1" value="+Instrument" style="swimlane;fontStyle=0;childLayout=stackLayout;horizontal=1;startSize=30;horizontalStack=0;resizeParent=1;resizeParentMax=0;resizeLast=0;collapsible=1;marginBottom=0;whiteSpace=wrap;html=1;strokeColor=default;" vertex="1" parent="1">
          <mxGeometry x="370" y="60" width="170" height="110" as="geometry" />
        </mxCell>
        <mxCell id="wwmCVKzJI6QBJEnrf--R-2" value="#name : String" style="text;strokeColor=none;fillColor=none;align=left;verticalAlign=middle;spacingLeft=4;spacingRight=4;overflow=hidden;points=[[0,0.5],[1,0.5]];portConstraint=eastwest;rotatable=0;whiteSpace=wrap;html=1;" vertex="1" parent="wwmCVKzJI6QBJEnrf--R-1">
          <mxGeometry y="30" width="170" height="30" as="geometry" />
        </mxCell>
        <mxCell id="wwmCVKzJI6QBJEnrf--R-3" value="&lt;div&gt;+Instrument(name: String)&lt;/div&gt;+play() : void&lt;div&gt;+toString() : String&lt;/div&gt;" style="text;strokeColor=default;fillColor=none;align=left;verticalAlign=middle;spacingLeft=4;spacingRight=4;overflow=hidden;points=[[0,0.5],[1,0.5]];portConstraint=eastwest;rotatable=0;whiteSpace=wrap;html=1;" vertex="1" parent="wwmCVKzJI6QBJEnrf--R-1">
          <mxGeometry y="60" width="170" height="50" as="geometry" />
        </mxCell>
        <mxCell id="wwmCVKzJI6QBJEnrf--R-5" value="+Piano" style="swimlane;fontStyle=0;childLayout=stackLayout;horizontal=1;startSize=30;horizontalStack=0;resizeParent=1;resizeParentMax=0;resizeLast=0;collapsible=1;marginBottom=0;whiteSpace=wrap;html=1;" vertex="1" parent="1">
          <mxGeometry x="10" y="260" width="140" height="70" as="geometry" />
        </mxCell>
        <mxCell id="wwmCVKzJI6QBJEnrf--R-6" value="+Piano()&lt;div&gt;+play() : void&lt;/div&gt;" style="text;strokeColor=none;fillColor=none;align=left;verticalAlign=middle;spacingLeft=4;spacingRight=4;overflow=hidden;points=[[0,0.5],[1,0.5]];portConstraint=eastwest;rotatable=0;whiteSpace=wrap;html=1;" vertex="1" parent="wwmCVKzJI6QBJEnrf--R-5">
          <mxGeometry y="30" width="140" height="40" as="geometry" />
        </mxCell>
        <mxCell id="wwmCVKzJI6QBJEnrf--R-9" value="+Drums" style="swimlane;fontStyle=0;childLayout=stackLayout;horizontal=1;startSize=30;horizontalStack=0;resizeParent=1;resizeParentMax=0;resizeLast=0;collapsible=1;marginBottom=0;whiteSpace=wrap;html=1;" vertex="1" parent="1">
          <mxGeometry x="210" y="260" width="140" height="70" as="geometry" />
        </mxCell>
        <mxCell id="wwmCVKzJI6QBJEnrf--R-10" value="+Drums()&lt;div&gt;+play() : void&lt;/div&gt;" style="text;strokeColor=none;fillColor=none;align=left;verticalAlign=middle;spacingLeft=4;spacingRight=4;overflow=hidden;points=[[0,0.5],[1,0.5]];portConstraint=eastwest;rotatable=0;whiteSpace=wrap;html=1;" vertex="1" parent="wwmCVKzJI6QBJEnrf--R-9">
          <mxGeometry y="30" width="140" height="40" as="geometry" />
        </mxCell>
        <mxCell id="wwmCVKzJI6QBJEnrf--R-13" value="+Guitar" style="swimlane;fontStyle=0;childLayout=stackLayout;horizontal=1;startSize=30;horizontalStack=0;resizeParent=1;resizeParentMax=0;resizeLast=0;collapsible=1;marginBottom=0;whiteSpace=wrap;html=1;" vertex="1" parent="1">
          <mxGeometry x="385" y="260" width="140" height="70" as="geometry" />
        </mxCell>
        <mxCell id="wwmCVKzJI6QBJEnrf--R-24" value="" style="endArrow=none;html=1;rounded=0;entryX=0.5;entryY=0;entryDx=0;entryDy=0;" edge="1" parent="wwmCVKzJI6QBJEnrf--R-13" target="wwmCVKzJI6QBJEnrf--R-13">
          <mxGeometry width="50" height="50" relative="1" as="geometry">
            <mxPoint x="-160" y="-20" as="sourcePoint" />
            <mxPoint x="110" as="targetPoint" />
            <Array as="points">
              <mxPoint x="70" y="-20" />
            </Array>
          </mxGeometry>
        </mxCell>
        <mxCell id="wwmCVKzJI6QBJEnrf--R-14" value="+Guitar()&lt;div&gt;+play() : void&lt;/div&gt;" style="text;strokeColor=none;fillColor=none;align=left;verticalAlign=middle;spacingLeft=4;spacingRight=4;overflow=hidden;points=[[0,0.5],[1,0.5]];portConstraint=eastwest;rotatable=0;whiteSpace=wrap;html=1;" vertex="1" parent="wwmCVKzJI6QBJEnrf--R-13">
          <mxGeometry y="30" width="140" height="40" as="geometry" />
        </mxCell>
        <mxCell id="wwmCVKzJI6QBJEnrf--R-21" value="Extends" style="endArrow=block;endSize=16;endFill=0;html=1;rounded=0;exitX=0.5;exitY=0;exitDx=0;exitDy=0;entryX=0.505;entryY=1.052;entryDx=0;entryDy=0;entryPerimeter=0;" edge="1" parent="1" source="wwmCVKzJI6QBJEnrf--R-13" target="wwmCVKzJI6QBJEnrf--R-3">
          <mxGeometry width="160" relative="1" as="geometry">
            <mxPoint x="240" y="260" as="sourcePoint" />
            <mxPoint x="449" y="171" as="targetPoint" />
            <Array as="points" />
          </mxGeometry>
        </mxCell>
        <mxCell id="wwmCVKzJI6QBJEnrf--R-25" value="" style="endArrow=none;html=1;rounded=0;exitX=0.5;exitY=0;exitDx=0;exitDy=0;" edge="1" parent="1" source="wwmCVKzJI6QBJEnrf--R-5">
          <mxGeometry width="50" height="50" relative="1" as="geometry">
            <mxPoint x="190" y="230" as="sourcePoint" />
            <mxPoint x="450" y="240" as="targetPoint" />
            <Array as="points">
              <mxPoint x="80" y="240" />
            </Array>
          </mxGeometry>
        </mxCell>
        <mxCell id="wwmCVKzJI6QBJEnrf--R-26" value="" style="endArrow=none;html=1;rounded=0;entryX=0.5;entryY=0;entryDx=0;entryDy=0;" edge="1" parent="1" target="wwmCVKzJI6QBJEnrf--R-9">
          <mxGeometry width="50" height="50" relative="1" as="geometry">
            <mxPoint x="280" y="240" as="sourcePoint" />
            <mxPoint x="320" y="250" as="targetPoint" />
          </mxGeometry>
        </mxCell>
        <mxCell id="wwmCVKzJI6QBJEnrf--R-27" value="+ElectronicInstrument" style="swimlane;fontStyle=0;childLayout=stackLayout;horizontal=1;startSize=30;horizontalStack=0;resizeParent=1;resizeParentMax=0;resizeLast=0;collapsible=1;marginBottom=0;whiteSpace=wrap;html=1;" vertex="1" parent="1">
          <mxGeometry x="590" y="260" width="210" height="90" as="geometry" />
        </mxCell>
        <mxCell id="wwmCVKzJI6QBJEnrf--R-28" value="&lt;span style=&quot;text-align: center;&quot;&gt;+ElectronicInstrument(name : String)&lt;/span&gt;&lt;div style=&quot;&quot;&gt;&lt;span style=&quot;&quot;&gt;+adjustVolume(level : int) : void&lt;/span&gt;&lt;/div&gt;&lt;div style=&quot;&quot;&gt;&lt;span style=&quot;&quot;&gt;+play() : void&lt;/span&gt;&lt;/div&gt;" style="text;strokeColor=none;fillColor=none;align=left;verticalAlign=middle;spacingLeft=4;spacingRight=4;overflow=hidden;points=[[0,0.5],[1,0.5]];portConstraint=eastwest;rotatable=0;whiteSpace=wrap;html=1;" vertex="1" parent="wwmCVKzJI6QBJEnrf--R-27">
          <mxGeometry y="30" width="210" height="60" as="geometry" />
        </mxCell>
        <mxCell id="wwmCVKzJI6QBJEnrf--R-31" value="" style="endArrow=none;html=1;rounded=0;entryX=0.5;entryY=0;entryDx=0;entryDy=0;" edge="1" parent="1" target="wwmCVKzJI6QBJEnrf--R-27">
          <mxGeometry width="50" height="50" relative="1" as="geometry">
            <mxPoint x="450" y="240" as="sourcePoint" />
            <mxPoint x="740" y="250" as="targetPoint" />
            <Array as="points">
              <mxPoint x="695" y="240" />
            </Array>
          </mxGeometry>
        </mxCell>
        <mxCell id="wwmCVKzJI6QBJEnrf--R-32" value="+Synthesizer" style="swimlane;fontStyle=0;childLayout=stackLayout;horizontal=1;startSize=30;horizontalStack=0;resizeParent=1;resizeParentMax=0;resizeLast=0;collapsible=1;marginBottom=0;whiteSpace=wrap;html=1;" vertex="1" parent="1">
          <mxGeometry x="595" y="430" width="200" height="90" as="geometry" />
        </mxCell>
        <mxCell id="wwmCVKzJI6QBJEnrf--R-33" value="&lt;span style=&quot;&quot;&gt;+Synthesizer()&lt;/span&gt;&lt;div&gt;&lt;span style=&quot;&quot;&gt;+play() : void&lt;/span&gt;&lt;/div&gt;&lt;div&gt;&lt;span style=&quot;&quot;&gt;+&lt;/span&gt;&amp;nbsp;adjustVolume(level : int) : void&lt;/div&gt;" style="text;strokeColor=none;fillColor=none;align=left;verticalAlign=middle;spacingLeft=4;spacingRight=4;overflow=hidden;points=[[0,0.5],[1,0.5]];portConstraint=eastwest;rotatable=0;whiteSpace=wrap;html=1;" vertex="1" parent="wwmCVKzJI6QBJEnrf--R-32">
          <mxGeometry y="30" width="200" height="60" as="geometry" />
        </mxCell>
        <mxCell id="wwmCVKzJI6QBJEnrf--R-37" value="Extends" style="endArrow=block;endSize=16;endFill=0;html=1;rounded=0;exitX=0.5;exitY=0;exitDx=0;exitDy=0;" edge="1" parent="1" source="wwmCVKzJI6QBJEnrf--R-32">
          <mxGeometry width="160" relative="1" as="geometry">
            <mxPoint x="690" y="430" as="sourcePoint" />
            <mxPoint x="695" y="347" as="targetPoint" />
          </mxGeometry>
        </mxCell>
      </root>
    </mxGraphModel>
  </diagram>
</mxfile>
